<?xml version="1.0" encoding="iso-8859-1"?>
<!-- Generator: Adobe Illustrator 21.0.0, SVG Export Plug-In . SVG Version: 6.00 Build 0)  -->
<svg version="1.1" id="Capa_1" xmlns="http://www.w3.org/2000/svg" xmlns:xlink="http://www.w3.org/1999/xlink" x="0px" y="0px"
	 viewBox="0 0 512 512" style="enable-background:new 0 0 512 512;" xml:space="preserve">
<rect x="7.506" y="145.412" style="fill:#FE4583;" width="323.27" height="72.621"/>
<path style="fill:#EA2D88;" d="M291.642,164.093h-83.599c-14.307,0-26.889,9.143-31.312,22.75
	c-3.556,10.945-1.135,22.649,5.966,31.19h148.079v-72.626h-33.063L291.642,164.093z"/>
<rect x="7.506" y="193.952" style="fill:#FE715A;" width="323.27" height="72.621"/>
<path style="fill:#F75B4B;" d="M188.687,223.656l59.071,42.919h83.017v-72.626H175.273
	C174.186,205.363,179.108,216.694,188.687,223.656z"/>
<rect x="7.506" y="245.495" style="fill:#FECF54;" width="323.27" height="72.621"/>
<polygon style="fill:#F9BD38;" points="256.327,272.8 241.602,318.118 330.776,318.118 330.776,245.491 218.741,245.491 "/>
<path style="fill:#85C255;" d="M7.506,346.643h272.16c28.228,0,51.11-22.883,51.11-51.11l0,0H7.506V346.643z"/>
<path style="fill:#00B764;" d="M232.334,346.643h47.332c28.228,0,51.11-22.883,51.11-51.11l0,0h-81.835L232.334,346.643z"/>
<path style="fill:#FFEA6E;" d="M489.538,182.108c14.442,0,20.447,18.485,8.767,26.972l-69.468,50.472
	c-5.224,3.793-7.406,10.519-5.415,16.664l26.532,81.658c4.464,13.731-11.259,25.161-22.939,16.664l-69.458-50.462
	c-5.234-3.793-12.3-3.793-17.535,0l-69.458,50.462c-11.68,8.497-27.403-2.932-22.939-16.664l26.532-81.658
	c1.992-6.145-0.19-12.871-5.415-16.664l-69.468-50.472c-11.68-8.487-5.675-26.972,8.767-26.972h85.862
	c6.455,0,12.18-4.153,14.172-10.299l26.532-81.658c4.464-13.731,23.9-13.731,28.364,0l26.532,81.658
	c1.992,6.145,7.716,10.299,14.172,10.299L489.538,182.108L489.538,182.108z"/>
<g>
	<path style="fill:#FFDE3B;" d="M338.196,171.81l25.654-78.957l-0.878-2.701c-4.464-13.731-23.9-13.731-28.364,0l-26.532,81.658
		c-1.992,6.145-7.716,10.299-14.172,10.299h30.119C330.48,182.108,336.204,177.955,338.196,171.81z"/>
	<path style="fill:#FFDE3B;" d="M277.746,357.875l26.532-81.658c1.992-6.145-0.19-12.871-5.415-16.664l-69.468-50.472
		c-11.68-8.487-5.675-26.972,8.767-26.972h-30.119c-14.442,0-20.447,18.485-8.767,26.972l69.468,50.472
		c5.224,3.793,7.406,10.519,5.415,16.664l-26.532,81.658c-4.464,13.731,11.259,25.161,22.939,16.664l7.829-5.688
		C276.867,365.677,276.445,361.876,277.746,357.875z"/>
	<path style="fill:#FFDE3B;" d="M387.677,324.077c-5.234-3.793-12.3-3.793-17.535,0l-6.292,4.571l63.166,45.891
		c8.277,6.021,18.574,2.032,22.291-5.688L387.677,324.077z"/>
</g>
<path d="M510.857,190.095c-3.058-9.409-11.425-15.489-21.318-15.489h-85.858c-3.218,0-6.047-2.056-7.041-5.114L370.11,87.835
	c-3.058-9.408-11.426-15.488-21.319-15.488s-18.261,6.079-21.319,15.489l-16.267,50.066H7.506c-4.146,0-7.506,3.36-7.506,7.506
	c0,4.146,3.36,7.506,7.506,7.506h298.821l-5.387,16.577c-0.994,3.06-3.823,5.114-7.041,5.114h-14.014
	c-4.146,0-7.506,3.36-7.506,7.506c0,4.146,3.36,7.506,7.506,7.506H293.9c9.741,0,18.309-6.224,21.319-15.489l26.531-81.656
	c1.542-4.746,5.779-5.114,7.041-5.114c1.262,0,5.499,0.368,7.041,5.114l26.531,81.656c3.009,9.265,11.577,15.489,21.319,15.489
	h85.858c4.989,0,6.651,3.915,7.04,5.115c0.389,1.2,1.348,5.343-2.689,8.277l-69.461,50.466c-7.88,5.727-11.152,15.797-8.143,25.061
	l26.532,81.655c1.542,4.747-1.669,7.535-2.69,8.278c-1.022,0.742-4.667,2.931-8.702,0l-69.46-50.466
	c-7.88-5.726-18.47-5.726-26.35,0l-69.46,50.466c-4.037,2.93-7.682,0.742-8.702,0s-4.233-3.53-2.69-8.278l26.532-81.655
	c3.01-9.264-0.263-19.334-8.144-25.061l-69.46-50.466c-4.036-2.933-3.079-7.076-2.689-8.277c0.389-1.201,2.051-5.115,7.04-5.115
	h41.819c4.146,0,7.506-3.36,7.506-7.506c0-4.146-3.36-7.506-7.506-7.506h-41.819c-9.114,0-16.922,5.168-20.487,13.337H7.506
	c-4.146,0-7.506,3.36-7.506,7.506c0,4.146,3.36,7.506,7.506,7.506h178.856c1.296,4.768,4.196,9.07,8.506,12.199l31.422,22.83H7.506
	c-4.146,0-7.506,3.36-7.506,7.506c0,4.146,3.36,7.506,7.506,7.506h239.446l17.375,12.624c2.603,1.892,3.685,5.218,2.69,8.278
	l-4.591,14.128h-159.28c-4.146,0-7.506,3.36-7.506,7.506s3.36,7.506,7.506,7.506H257.55l-11.382,35.029H7.506
	c-4.146,0-7.506,3.36-7.506,7.506c0,4.146,3.36,7.506,7.506,7.506h233.783l-0.804,2.473c-3.058,9.409,0.14,19.246,8.144,25.062
	c4.001,2.906,8.588,4.361,13.175,4.361c4.587-0.001,9.174-1.454,13.175-4.362l69.46-50.466c2.604-1.891,6.101-1.891,8.702,0
	l69.46,50.466c8.005,5.816,18.347,5.815,26.35,0.001c8.004-5.816,11.2-15.653,8.144-25.062l-26.532-81.655
	c-0.994-3.06,0.088-6.386,2.69-8.278l69.46-50.466C510.718,209.341,513.914,199.504,510.857,190.095z"/>
<path d="M311.26,205.958c-4.975,0-9.008,4.032-9.008,9.008v20.017c0,4.975,4.032,9.008,9.008,9.008s9.008-4.032,9.008-9.008v-20.017
	C320.267,209.992,316.235,205.958,311.26,205.958z"/>
<path d="M394.329,234.982v-20.017c0-4.975-4.032-9.008-9.008-9.008s-9.008,4.032-9.008,9.008v20.017
	c0,4.975,4.032,9.008,9.008,9.008S394.329,239.958,394.329,234.982z"/>
<path d="M316.55,269.737c-3.191-2.645-7.923-2.202-10.57,0.989c-2.646,3.192-2.203,7.924,0.989,10.57
	c13.679,11.338,27.751,17.007,41.821,17.007s28.141-5.669,41.821-17.007c3.192-2.646,3.635-7.377,0.989-10.57
	c-2.647-3.191-7.379-3.634-10.57-0.989C359.034,287.97,338.547,287.97,316.55,269.737z"/>
<path d="M7.506,303.039h65.615c4.146,0,7.506-3.36,7.506-7.506s-3.36-7.506-7.506-7.506H7.506c-4.146,0-7.506,3.36-7.506,7.506
	S3.36,303.039,7.506,303.039z"/>
<path d="M438.866,88.86c4.146,0,7.506-3.36,7.506-7.506v-8.007c0-4.146-3.36-7.506-7.506-7.506c-4.146,0-7.506,3.36-7.506,7.506
	v8.007C431.36,85.501,434.72,88.86,438.866,88.86z"/>
<path d="M456.881,107.876h8.007c4.146,0,7.506-3.36,7.506-7.506s-3.36-7.506-7.506-7.506h-8.007c-4.146,0-7.506,3.36-7.506,7.506
	S452.735,107.876,456.881,107.876z"/>
<path d="M437.865,133.898c4.146,0,7.506-3.36,7.506-7.506v-8.007c0-4.146-3.36-7.506-7.506-7.506c-4.146,0-7.506,3.36-7.506,7.506
	v8.007C430.359,130.538,433.719,133.898,437.865,133.898z"/>
<path d="M411.843,106.876h8.007c4.146,0,7.506-3.36,7.506-7.506s-3.36-7.506-7.506-7.506h-8.007c-4.146,0-7.506,3.36-7.506,7.506
	S407.697,106.876,411.843,106.876z"/>
<path d="M135.613,378.102c-4.146,0-7.506,3.36-7.506,7.506v8.007c0,4.146,3.36,7.506,7.506,7.506c4.146,0,7.506-3.36,7.506-7.506
	v-8.007C143.119,381.463,139.76,378.102,135.613,378.102z"/>
<path d="M161.635,405.124h-8.007c-4.146,0-7.506,3.36-7.506,7.506s3.36,7.506,7.506,7.506h8.007c4.146,0,7.506-3.36,7.506-7.506
	S165.781,405.124,161.635,405.124z"/>
<path d="M134.612,423.139c-4.146,0-7.506,3.36-7.506,7.506v8.007c0,4.146,3.36,7.506,7.506,7.506c4.146,0,7.506-3.36,7.506-7.506
	v-8.007C142.119,426.5,138.759,423.139,134.612,423.139z"/>
<path d="M116.597,404.123h-8.007c-4.146,0-7.506,3.36-7.506,7.506c0,4.146,3.36,7.506,7.506,7.506h8.007
	c4.146,0,7.506-3.36,7.506-7.506C124.104,407.483,120.744,404.123,116.597,404.123z"/>
<g>
</g>
<g>
</g>
<g>
</g>
<g>
</g>
<g>
</g>
<g>
</g>
<g>
</g>
<g>
</g>
<g>
</g>
<g>
</g>
<g>
</g>
<g>
</g>
<g>
</g>
<g>
</g>
<g>
</g>
</svg>
